# Blender 3.4.1
# www.blender.org
mtllib cornell.mtl
o area_light
v 2.517967 0.884011 5.319335
v 3.567967 0.884011 5.318498
v 3.567967 -0.415989 5.318498
v 2.517967 -0.415989 5.319335
vn -0.0008 -0.0000 -1.0000
s 0
usemtl Light
f 2//1 4//1 1//1
f 2//1 3//1 4//1
o back_wall
v 5.835598 2.950011 -0.162685
v 5.835598 -2.545989 -0.162685
v 5.839966 -2.545989 5.325314
v 5.839966 3.014011 5.325314
vn -1.0000 -0.0000 0.0008
s 0
usemtl Khaki
f 5//2 7//2 8//2
f 5//2 6//2 7//2
o ceiling
v 0.247968 3.014011 5.329765
v 5.839967 3.014011 5.325314
v 5.839967 -2.545989 5.325314
v 0.247968 -2.545989 5.329765
vn -0.0008 -0.0000 -1.0000
s 0
usemtl Khaki
f 10//3 12//3 9//3
f 10//3 11//3 12//3
o floor
v 0.243599 2.982011 -0.158233
v 0.243599 -2.545989 -0.158233
v 5.835598 -2.545989 -0.162685
v 5.835598 2.950011 -0.162685
vn 0.0008 -0.0000 1.0000
s 0
usemtl Khaki
f 14//4 16//4 13//4
f 14//4 15//4 16//4
o left_wall
v 0.243599 2.982011 -0.158233
v 5.835598 2.950011 -0.162685
v 5.839967 3.014011 5.325314
v 0.247968 3.014011 5.329765
vn -0.0000 -1.0000 0.0058
vn -0.0057 -0.9999 0.0117
s 0
usemtl BloodyRed
f 17//5 19//5 20//5
f 17//6 18//6 19//6
o right_wall
v 5.835598 -2.545989 -0.162685
v 0.243599 -2.545989 -0.158233
v 0.247968 -2.545989 5.329765
v 5.839967 -2.545989 5.325314
vn -0.0000 1.0000 -0.0000
s 0
usemtl DarkGreen
f 22//7 24//7 21//7
f 22//7 23//7 24//7
o short_box
v 0.894913 -1.245989 1.491249
v 2.494912 -1.725989 1.489975
v 2.964912 -0.145989 1.489601
v 1.384912 0.354011 1.490859
v 1.383599 0.354011 -0.159141
v 1.384912 0.354011 1.490859
v 2.964912 -0.145989 1.489601
v 2.963598 -0.145989 -0.160399
v 0.893599 -1.245989 -0.158750
v 0.894913 -1.245989 1.491249
v 1.384912 0.354011 1.490859
v 1.383599 0.354011 -0.159141
v 2.493598 -1.725989 -0.160024
v 2.494912 -1.725989 1.489975
v 0.894913 -1.245989 1.491249
v 0.893599 -1.245989 -0.158750
v 2.963598 -0.145989 -0.160399
v 2.964912 -0.145989 1.489601
v 2.494912 -1.725989 1.489975
v 2.493598 -1.725989 -0.160024
vn 0.0008 -0.0000 1.0000
vn 0.3017 0.9534 -0.0002
vn -0.9562 0.2928 0.0008
vn -0.2873 -0.9578 0.0002
vn 0.9585 -0.2851 -0.0008
s 0
usemtl Khaki
f 25//8 27//8 28//8
f 30//9 32//9 29//9
f 34//10 36//10 33//10
f 38//11 40//11 37//11
f 42//12 44//12 41//12
f 25//8 26//8 27//8
f 30//9 31//9 32//9
f 34//10 35//10 36//10
f 38//11 39//11 40//11
f 42//12 43//12 44//12
o tall_box
v 2.716226 1.684011 3.139800
v 3.206226 0.104011 3.139410
v 4.806225 0.594011 3.138136
v 4.306225 2.174011 3.138534
v 2.713598 1.684011 -0.160200
v 2.716226 1.684011 3.139800
v 4.306225 2.174011 3.138534
v 4.303598 2.174011 -0.161465
v 4.303598 2.174011 -0.161465
v 4.306225 2.174011 3.138534
v 4.806225 0.594011 3.138136
v 4.803598 0.594011 -0.161863
v 4.803598 0.594011 -0.161863
v 4.806225 0.594011 3.138136
v 3.206226 0.104011 3.139410
v 3.203598 0.104011 -0.160589
v 3.203598 0.104011 -0.160589
v 3.206226 0.104011 3.139410
v 2.716226 1.684011 3.139800
v 2.713598 1.684011 -0.160200
vn 0.0008 -0.0000 1.0000
vn -0.2945 0.9556 0.0002
vn 0.9534 0.3017 -0.0008
vn 0.2928 -0.9562 -0.0002
vn -0.9551 -0.2962 0.0008
s 0
usemtl Khaki
f 46//13 48//13 45//13
f 49//14 51//14 52//14
f 54//15 56//15 53//15
f 58//16 60//16 57//16
f 62//17 64//17 61//17
f 46//13 47//13 48//13
f 49//14 50//14 51//14
f 54//15 55//15 56//15
f 58//16 59//16 60//16
f 62//17 63//17 64//17
